<?xml version="1.0" encoding="utf-8"?>
<!-- Generator: Adobe Illustrator 26.0.3, SVG Export Plug-In . SVG Version: 6.00 Build 0)  -->
<svg version="1.1" xmlns="http://www.w3.org/2000/svg" xmlns:xlink="http://www.w3.org/1999/xlink" x="0px" y="0px"
	 viewBox="0 0 630.3 354.7" style="enable-background:new 0 0 630.3 354.7;" xml:space="preserve">
<style type="text/css">
	.st0{display:none;fill:#FFFFFF;}
	.st1{fill:#FFFFFF;}
	.st2{fill:#FEDAE7;}
	
		.st3{clip-path:url(#SVGID_00000166670771114339499780000004230733513200138670_);fill:url(#SVGID_00000172408640135484700560000015575610017764631733_);}
	
		.st4{clip-path:url(#SVGID_00000166670771114339499780000004230733513200138670_);fill:url(#SVGID_00000105394429355683601150000009316502167710917043_);}
	.st5{clip-path:url(#SVGID_00000166670771114339499780000004230733513200138670_);fill:#FFEFC5;}
	
		.st6{clip-path:url(#SVGID_00000166670771114339499780000004230733513200138670_);fill:url(#SVGID_00000100363820981815635000000006197049689277732028_);}
	
		.st7{clip-path:url(#SVGID_00000166670771114339499780000004230733513200138670_);fill:url(#SVGID_00000051372687476533209370000005196814498395464621_);}
	.st8{clip-path:url(#SVGID_00000166670771114339499780000004230733513200138670_);}
	.st9{fill:url(#SVGID_00000136413582447599779610000011118804474889735313_);}
	.st10{fill:url(#SVGID_00000035498935973651078230000015241479609044535723_);}
	.st11{fill:url(#SVGID_00000156586707077805073290000012109028899579865255_);}
	.st12{fill:url(#SVGID_00000053512374090067796340000001476056155520213905_);}
	.st13{fill:url(#SVGID_00000142145975379471532040000008651400083582294172_);}
	.st14{fill:url(#SVGID_00000018949323770525733860000015872512675174903194_);}
	.st15{fill:url(#SVGID_00000000933672879584092290000013689858774941109669_);}
	
		.st16{clip-path:url(#SVGID_00000166670771114339499780000004230733513200138670_);fill:url(#SVGID_00000083798909533028253910000012397040134258953378_);}
	.st17{fill:#571152;}
	.st18{display:none;}
	.st19{display:inline;}
	.st20{fill:#F9FBFC;}
</style>
<g id="BACKGROUND">
</g>
<g id="OBJECTS">
	<rect x="0" y="7.1" class="st0" width="630.6" height="354.7"/>
	<rect y="-2.4" class="st1" width="630.6" height="357.1"/>
	<path class="st2" d="M387.7-2.4c-27,4.9-95.5,25.6-91,67.4s52,45.5,37.5,88.7s-222.4,76-95.4,201l391.9,0V-2.4H387.7z"/>
	<g>
		<defs>
			<path id="SVGID_1_" d="M391.8-2.4c-38.7,8.5-88.7,34-86,71.6c2.7,37.6,38.2,51.2,31,78.8c-10.1,38.7-184.3,74.8-93.6,206.7h387.5
				V-2.4H391.8z"/>
		</defs>
		<clipPath id="SVGID_00000098204337954717920990000016703055738501799058_">
			<use xlink:href="#SVGID_1_"  style="overflow:visible;"/>
		</clipPath>
		
			<linearGradient id="SVGID_00000111173353404769928560000011096556598776206732_" gradientUnits="userSpaceOnUse" x1="423.8313" y1="227.5601" x2="423.8313" y2="-1.986">
			<stop  offset="0" style="stop-color:#FFEFC5"/>
			<stop  offset="1" style="stop-color:#DB5798"/>
		</linearGradient>
		
			<path style="clip-path:url(#SVGID_00000098204337954717920990000016703055738501799058_);fill:url(#SVGID_00000111173353404769928560000011096556598776206732_);" d="
			M391.8-2.4c-38.7,8.5-88.7,34-86,71.6c2.7,37.6,38.2,51.2,31,78.8c-10.1,38.7-184.3,74.8-93.6,206.7h387.5V-2.4H391.8z"/>
		
			<linearGradient id="SVGID_00000166658739036627724670000008075410184363852933_" gradientUnits="userSpaceOnUse" x1="448.7548" y1="353.7385" x2="448.7548" y2="132.8234">
			<stop  offset="0" style="stop-color:#FFA97A"/>
			<stop  offset="1" style="stop-color:#FF698B"/>
		</linearGradient>
		
			<path style="clip-path:url(#SVGID_00000098204337954717920990000016703055738501799058_);fill:url(#SVGID_00000166658739036627724670000008075410184363852933_);" d="
			M703.6,230.6v124.1H193.9V229.6c0,0,42.6-10.8,48.6-11.1c5-0.2,68.9-29.7,91.9-36.5c4.6-1.4,7.5-2.2,8.2-2.4
			c3.9-1.1,43.3-21.5,48.6-23.6c5.3-2.1,25.8-12.6,28.6-13.7c2.8-1.1,13.8-5.7,15-6.2c1.2-0.5,3,0.5,5.1,0c2.1-0.5,4.9-0.2,4.9-0.2
			s19.4,9.9,22.2,11c2.8,1.1,20.1,10.7,22.3,12.1c2.1,1.4,30.9,17.1,35.5,18.8c1.8,0.7,6.4,2.5,11.2,4.4c7.3,2.9,15.4,5.9,15.9,5.9
			c0.9,0,51,28.1,53.5,28.8c2.5,0.7,24.7,5,24.7,5s14.3-0.2,17.7,0.7c3.4,0.9,16.4,5.5,19.8,6C671,229,703.6,230.6,703.6,230.6z"/>
		<path style="clip-path:url(#SVGID_00000098204337954717920990000016703055738501799058_);fill:#FFEFC5;" d="M530.5,182.3l-6.2-0.4
			l2.6,1.9l-9.3-1.2l-5.8-1.7l3.3,2.6l-6.6-1.2l-8.7-3.3l4.7,3.6l-5.7,1.7l-6.2-2.5l4.2,2.6l1.1,3.4l-10-0.8l1.4,1.3L482,186
			l3.5,3.8l-2.6,0.7l-4-3.4l-6.7-3.6l1.4,4.3l0.8,1.3l-5.9-3.3l-4.1-3l4.1,4.3l-8.7-0.7l-6.1-1.5l-3.2-3.4v3.3l-3.4-5.3l0.9,6v1.6
			l-6.3-4.3l0.6,7.1l-1.3,1.5l-4.5-2.8l-2.8-10l-0.7,4.3l-1.1,4.2l-0.8-6.1l-0.8,6.1l-0.9,3.7l-0.8-5.6l-0.2-8.4l-1.5,5l-1.8,2.5
			l-0.9-2.2v2.8l-6.4,2.3l2-5.3l-8,3.1l-1.6,3.1l-7,3.1l-7.2,3.9l5.2-6.9l3.6-4.4l2.1-3.1l-5.7-0.2l2.5-3.7l-8.4,5.3l-4.9,4
			l-5.2,6.2l-4.9,5l1.2-4.3l2-4.4l-3.4,1.1l1.3-3.6l-4.5,1.1l-4.4,0.5l2.4-3.6l1.1-3.7l-2.9,2.1l2.9-3.5l-5.1,1.4l-7.8,3.6l-6.8,0.2
			c0,0-4-1.9-4.8-2.2c-0.8-0.4-5.9,1.4-5.9,1.4l-7.3,2.7c0.2-0.2,4.2-2.8,4.6-3.1c0.3-0.3,8.1-3.7,8.6-3.9l-10.3,2.6l-6.6,0.3
			c4.6-1.3,7.5-2.2,8.2-2.4c3.9-1.1,43.2-21.5,48.6-23.6c5.3-2.1,25.8-12.6,28.6-13.7c2.8-1.1,13.8-5.7,15-6.2c1.2-0.5,3,0.5,5.1,0
			c1.9-0.5,4.4-0.2,4.9-0.2l-0.5,1.4l0.4,1.3l-0.9,1.6l-3.6,1.9v4.1l-1.8-1.3v2.6l-0.6,3.1l3.4,8.1l0.9,3.7l3.2,3l2.7,7.7v-6.9
			l3.4,4.8l3.1,2l4.7,2.6l-4.2-4.9l15.5,6.6h2.4l4.9,0.7h4.8l0.2-2l9.9,3.5l-3.4-3.8l-6.2-4.6l6.9,3.6l-2-2.8l6.4,3.7l4.4,0.7
			l5.8-2.4l-6.9-3.9l10.6,2.7l-1-2.2l1.1-0.9c7.3,3.9,14.3,7.5,16.4,8.3c1.8,0.7,6.4,2.5,11.2,4.4L530.5,182.3z"/>
		
			<linearGradient id="SVGID_00000003093930655798281770000009994370171116957364_" gradientUnits="userSpaceOnUse" x1="452.2466" y1="359.779" x2="452.2466" y2="234.2717">
			<stop  offset="0" style="stop-color:#FF856F"/>
			<stop  offset="1" style="stop-color:#DB3888"/>
		</linearGradient>
		
			<path style="clip-path:url(#SVGID_00000098204337954717920990000016703055738501799058_);fill:url(#SVGID_00000003093930655798281770000009994370171116957364_);" d="
			M618.5,302.6c-16.1-3.2-72.7,0.7-86.3,0c-5.9-0.3-25.4-4.9-46.2-10c-0.4-0.3-1.3-1-1.4-1.2c-0.2-0.3-0.5-3.1-0.5-3.8
			c0-0.7,0.2-1.3,0.2-1.8c0-0.6,2.1-2.5,2.1-3c0-0.6,0.3-5,0.3-5v-1.4l0.8-0.4c0,0,0.7-0.3,1.5,1c0.8,1.3,1.3,1,1.3,1s0,0,0.5,0.3
			s0.9-0.5,1-1.3c0.1-0.8-0.2-1.6-0.2-1.6h-1.3c0,0-0.4-0.4-0.7-1c-0.3-0.6-1.8-0.3-1.8-0.3l-1.2-0.2v-0.5l0.4-1l1,0.6
			c0,0,1.3-0.2,1.3-0.5c0-0.3,0.4-0.5,1-0.7l0.8,0.6c0,0,0,0,1,0.6c1,0.6,3.2,1.3,3.2,1.3s0,0,1.4,1.1c1.4,1.1,0,0-0.4,2.3
			c-0.3,1.6-0.3,1.8-0.4,1.8l0.4,1.6l1.2,0.7l0.6,1.7c0,0,0,0,0.6,0.7c0.6,0.7,0,0,2,1.6c2,1.6,3.2-1.1,3.2-1.1l-1.5-0.5l-1.1-1
			c0,0,0.2,0.3-2.2-1.3c-2.4-1.6-1.4-1.9-1.4-1.9l2.1-1.5c0,0,0,0,2.7,1.6c2.7,1.6,0.5-1.6,0.5-1.6l1.8-0.8c0,0-0.2,0.1,2.4,1.2
			c2.6,1.1,1.8,2.9,1.8,2.9l-0.4,2.3c0,0,0,0,2,0.6c2,0.6-0.1,0.3,1.5-1.6c1.5-1.9,1.3,1,1.3,1l0.5,1.5l2.3,0l0.3-1.6
			c0,0,0,0.3-0.6-1.3c-0.1-0.4-0.2-0.6-0.2-0.6c-0.1,0-0.2-0.1-0.7-0.7c-1.3-1.6,1-0.7,0.6-1.9c-0.3-1.2-0.5-0.4-0.5-0.4
			s0.2,0.2-1.2-1.1c-1.3-1.3-0.4-2.1-0.4-2.1l0.4-2.9l-1.7-0.5l-0.3-1.9c0,0-0.1,0.3-0.2-1.8c-0.2-2-2.4-1-2.4-1s-1.5-1-1.8-1.1
			c-0.3-0.1,0.6-3.6,0.6-3.6l0.1-0.8l2.6,0.7c0,0,0,0,0.9-0.8c0.9-0.8-1.6-0.5-1.6-0.5s0,0,2.4-0.8c2.4-0.8,0.4-1.4,0.4-1.4
			s0,0.2-1.1-0.5c-1.1-0.7-1.9-0.3-1.9-0.3l-3.3-0.9c0.1,0,0-0.3-2.4-2.3c-3.3-2.8,2.7-0.4,2.7-0.4l2.2,1.2l1.3-1.1c0,0,0,0-0.7-1.1
			c-0.7-1.1-1.4-0.4-1.4-0.4l-0.6-0.3c0,0,0,0,0.5-0.3c0.5-0.3-0.9-1.9-0.9-1.9s0,0.2-2-0.9s-1.4,1.6-1.4,1.6s0,0-1.7,0
			c-1.7,0-0.3-0.4-0.3-0.4s0,0,0.8-0.5s-0.4,0.3,0.3-1c0.6-1.3-1.6-0.6-1.9-0.5c0-0.1,0-0.3,0-0.8c0-1.2-1.3-0.6-1.3-0.6
			s0,0-1.5,0.1c-1.5,0.1-2.2,0-2.2,0l-0.9,1.6c0,0,0,0-1.4-0.7c-1-0.5-1-0.7-0.9-0.8c-0.1,0.1-0.6,0.2-2.2,0.7
			c-0.4,0.1-0.6,0.2-0.8,0.2c0-0.1,0-0.1,0-0.2c0.2-0.1,0.3-0.1,0.3-0.1c0,0-0.1,0-0.3,0c0-0.1,0-0.2,0-0.2
			c-0.2-0.4-0.3-1.4-0.3-1.4l-1-0.5l-0.6-0.4l0.3-1.4l-1-0.9l-2.4,0c0,0-1.7,1.2-1.8,0c-0.1-1.2-0.1-1.2-0.1-1.2l-2.3-2.3
			c0,0,1.2-0.6,0-1.3s-1.2-0.7-1.2-0.7l-1.2-0.2l-0.3-2.9l-1.4-1.5c0,0-1.2,2-2.1,0.4c-0.9-1.6-0.9-1.6-0.9-1.6l0.1-1.4l-2.7-0.2
			l-0.8-1c0,0-1.3,1.6,0.5,1.8c1.8,0.2,1.8,0.1,1.8,0.1v1.6c0,0-0.3,1.2-2.2,0.3c-1.9-0.9-1.9-0.9-1.9-0.9l-1.7,0l-0.6-1.5l-0.1-2.1
			l-1.5-2c0,0-2.1-0.1-1.6,0.6c0.5,0.7,1.2-0.9,1.6,1.1c0.3,2,0.3,2,0.3,2l-0.4,1.3l-1.3,0.4l-1,0.3l-1.2-1.1l-1.3-1.7l1.2-1.8
			l0.8-1l-0.7-1.6l-1.1,0.7l-1.2,1.8l-1.5,2l-0.9,0.7c0,0-0.8-0.9-1.4-0.5c-0.6,0.4-0.5-0.7-0.6,0.3c-0.1,1-0.3,2.2-0.3,2.2l0.5,1.4
			c0,0,0,1.9-1.4,0.6c-1.4-1.3-1.3-1.3-1.3-1.3s0.5-1.6-0.7-1.8c-1.2-0.2-0.7,0.3-0.9,0.8c-0.2,0.5,0.2,1.8-0.7,1.3
			c-0.9-0.5-1.2-1-1.2-1l-1.2-1.7c0,0,0.5,1.2-1.5-0.6c-2.1-1.8-2.1-1.8-2.1-1.8l-1.7-1l-1.5-1.2c0,0,0.1,2.5,0.7,3
			c0.7,0.5,0.9,0,1.3,0.7c0.4,0.7,1,1.7,1,1.7s0.2,2.9-1,1.7c-1.2-1.1-1.6-1.8-1.6-1.8l-1.7-0.3l-2.1-0.3l-0.3-1.6l-2.2-0.9l0,1.9
			l1.6,1l0.4,1.2l1.8,1.4l-0.9,0.9l-3.7,1.3l-1.2-0.2c0,0,0.2,1.3-1.1,1.9c-0.4,0-0.8,0-0.9,0c-0.2,0.1,0.6,0.1,0.5,0.1
			c-0.1,0-0.2,0.1-0.3,0.1c-0.2,0-0.4,0.1-0.9,0.2c-1.3,0.2-1.8,0.3-1.9,0.3c0,0,0.1,0.1,0.3,0.1l-0.1,0.1c-0.2,0-0.4-0.1-0.7-0.2
			c-1.6-0.5-2.1-0.7-2.2-0.7c0.1,0.1,0.1,0.3-0.9,0.8c-1.4,0.7-1.4,0.7-1.4,0.7l-0.9-1.6c0,0-0.7,0-2.2,0c-1.5-0.1-1.5-0.1-1.5-0.1
			s-1.3-0.5-1.3,0.6c0,0.5,0,0.7,0,0.8c-0.2-0.1-1.8-0.6-2,0c-1.4,0.1-1.4,0.1-1.4,0.1l-2.8-1.1c0,0,1.8,0.2-0.2-1.5
			c-2.1-1.7,1.6-1.6-0.8-1.7c-2.4,0-2.4,0-2.4,0l-0.2,1.3l-1.1,0.4l-2.5,0.8l-0.6,0.3l-1.2-0.6c0,0-2.9-0.4-3.1-0.3
			c-0.2,0.2,1.7,0-0.6,0.4c-1.1,0.2-1.6,0.3-1.8,0.3c-0.1,0-0.1,0-0.2-0.1c-1.7-0.5-1.5-2-1.5-2l-1.2,0.2l-3.7-1.3l-0.9-0.9l1.8-1.4
			l0.4-1.2l1.6-1l0-1.9l-2.2,0.9l-0.3,1.6l-2.1,0.3l-1.7,0.3c0,0-0.4,0.7-1.6,1.8c-1.2,1.1-1-1.7-1-1.7s0.6-1,1-1.7
			c0.4-0.7,0.7-0.2,1.3-0.7s0.7-3,0.7-3l-1.5,1.2l-1.7,1c0,0,0,0-2.1,1.8c-2.1,1.8-1.5,0.6-1.5,0.6l-1.2,1.7c0,0-0.2,0.5-1.2,1
			c-0.9,0.5-0.5-0.8-0.7-1.3c-0.2-0.5,0.3-1-0.9-0.8c-1.2,0.2-0.7,1.8-0.7,1.8s0.1,0-1.3,1.3c-1.4,1.3-1.4-0.6-1.4-0.6l0.5-1.4
			c0,0-0.2-1.2-0.3-2.2c-0.1-1,0,0.1-0.6-0.3c-0.6-0.4-1.4,0.5-1.4,0.5l-0.9-0.7l-1.5-2l-1.2-1.8l-1.1-0.7l-0.7,1.6l0.8,1l1.2,1.8
			l-1.3,1.7l-1.2,1.1l-1-0.3l-1.3-0.4l-0.4-1.3c0,0,0,0,0.3-2c0.3-2,1.1-0.4,1.6-1.1c0.5-0.7-1.6-0.6-1.6-0.6l-1.5,2l-0.1,2.1
			l-0.6,1.5l-1.7,0c0,0,0,0-1.9,0.9c-1.9,0.9-2.2-0.3-2.2-0.3v-1.6c0,0,0,0.1,1.8-0.1c1.8-0.2,0.5-1.8,0.5-1.8l-0.8,1l-2.7,0.2
			l0.1,1.4c0,0,0,0-0.9,1.6c-0.9,1.6-2.1-0.4-2.1-0.4l-1.4,1.5l-0.3,2.9l-1.2,0.2c0,0,0,0-1.1,0.7l-0.3-0.5c0,0-1.6,0-1.2,0.5
			c0.3,0.4,0.8-0.4,1.1,0.3c-0.4,0.4,0,0.8,0.2,0.9c0,0.1,0,0.2,0,0.2l-2.1,2.1l-0.8-0.7l-1-1.2l0.9-1.3l0.6-0.8l-0.5-1.2l-0.8,0.5
			l-0.9,1.3l-1.1,1.5l-0.7,0.5c0,0-0.6-0.7-1.1-0.4c-0.5,0.3-0.4-0.5-0.4,0.2c0,0,0,0.1,0,0.1c-0.2-0.2-0.4-0.3-0.7-0.5
			c-1.1-0.6-0.7-0.3-1.6-1c-0.9-0.7-1.5-2.2-1.5-2.2s-0.2-0.5-0.4-1.2c-0.2-0.8,0.1,0.2-1.4-0.9c-1.5-1.1-0.7-0.1-1.4-0.2
			c-0.7-0.1-1.9-2.9-1.9-2.9l-0.6-1.5l-1-0.1c0,0,0,0-1.7-0.5c-1.7-0.5-1.5-2-1.5-2l-1.2,0.2l-3.7-1.3l-0.9-0.9l1.8-1.4l0.4-1.2
			l1.6-1l0-1.9l-2.2,0.9l-0.3,1.6l-2.1,0.3l-1.7,0.3c0,0-0.4,0.7-1.6,1.8c-1.2,1.1-1-1.7-1-1.7s0.6-1,1-1.7c0.4-0.7,0.7-0.2,1.3-0.7
			c0.7-0.5,0.7-3,0.7-3l-1.5,1.2l-1.7,1c0,0,0,0-2.1,1.8c-2.1,1.8-1.5,0.6-1.5,0.6L308,224c0,0-0.2,0.5-1.2,1
			c-0.9,0.5-0.5-0.8-0.7-1.3c-0.2-0.5,0.3-1-0.9-0.8s-0.7,1.8-0.7,1.8s0.1,0-1.3,1.3c-1.4,1.3-1.4-0.6-1.4-0.6l0.5-1.4
			c0,0-0.2-1.2-0.3-2.2c-0.1-1,0,0.1-0.6-0.3c-0.6-0.4-1.4,0.5-1.4,0.5l-0.9-0.7l-1.5-2l-1.2-1.8l-1.1-0.7l-0.7,1.6l0.8,1l1.2,1.8
			l-1.3,1.7L294,224l-1-0.3l-1.3-0.4l-0.4-1.3c0,0,0,0,0.3-2c0.3-2,1.1-0.4,1.6-1.1c0.5-0.7-1.6-0.6-1.6-0.6l-1.5,2l-0.1,2.1
			l-0.6,1.5l-1.7,0c0,0,0,0-1.9,0.9c-1.9,0.9-2.2-0.3-2.2-0.3v-1.6c0,0,0,0.1,1.8-0.1c1.8-0.2,0.5-1.8,0.5-1.8l-0.8,1l-2.7,0.2
			l0.1,1.4c0,0,0,0-0.9,1.6c-0.9,1.6-2.1-0.4-2.1-0.4l-1.4,1.5l-0.3,2.9l-1.2,0.2c0,0,0,0-1.2,0.7c-0.3,0.2-0.5,0.4-0.5,0.5
			c-0.7-0.2-0.9-0.3-1-0.4c0.1,0.1,0.1,0.3-0.9,0.8c-1.4,0.7-1.4,0.7-1.4,0.7l-0.3-0.6l0-0.7l-0.4,0l-0.1-0.3c0,0-0.5,0-1.6,0
			l-0.4-0.6c0,0-0.2,0.2-0.3,0.5c-1.5-0.1-1.5-0.1-1.5-0.1s-1.3-0.5-1.3,0.6c0,0,0,0.1,0,0.1l-0.1-0.2l-0.1-1.6l-1.1-1.5
			c0,0-1.6,0-1.2,0.5c0.4,0.5,0.9-0.7,1.2,0.8c0.2,1.5,0.2,1.5,0.2,1.5l-0.3,0.9l-1,0.3l-0.7,0.2l-0.9-0.9l-1-1.2l0.9-1.3l0.6-0.8
			l-0.5-1.2l-0.8,0.5l-0.9,1.3l-1.1,1.5l-0.7,0.5c0,0-0.6-0.7-1.1-0.4c-0.5,0.3-0.4-0.5-0.4,0.2c-0.1,0.7-0.2,1.6-0.2,1.6l0.4,1.1
			c0,0,0,1.4-1.1,0.4c-1.1-1-1-1-1-1s0.4-1.2-0.6-1.4c-0.9-0.1-0.5,0.3-0.7,0.6c-0.1,0.2,0,0.7-0.1,0.9h-0.5
			c-0.2-0.1-0.4-0.3-0.5-0.4c0.4-0.3,0.7-0.8-0.5-0.7l-0.7-0.9c0,0,0.4,0.9-1.1-0.4c-1.5-1.3-1.5-1.3-1.5-1.3l-1.3-0.8l-0.7-0.5
			c0.2-0.1,0.3-0.1-0.2-0.1l-0.3-0.2c0,0,0,0.1,0,0.2c-0.1,0-0.2,0-0.3,0c-2.4,0-2.4,0-2.4,0l-0.2,1.3l-0.9,0.3l-0.5-0.2l0,0.4
			l-2.1,0.7l-0.6,0.3l-1.2-0.6c0,0-2.9-0.4-3.1-0.3c-0.2,0.2,1.7,0-0.6,0.4c-1.3,0.2-1.8,0.3-1.9,0.3c0.1,0,1.9,0.8-0.4,0.1
			c-1.6-0.5-2.1-0.7-2.2-0.7c0.1,0.1,0.1,0.3-0.9,0.8c-1.4,0.7-1.4,0.7-1.4,0.7l-0.9-1.6c0,0-0.7,0-2.2,0c-1.5-0.1-1.5-0.1-1.5-0.1
			s-1.3-0.5-1.3,0.6c0,0.5,0,0.7,0,0.8c-0.3-0.1-2.5-0.8-1.9,0.5c0.7,1.4-0.5,0.5,0.3,1s0.8,0.5,0.8,0.5s1.3,0.4-0.3,0.4
			c-1.7,0-1.7,0-1.7,0s0.6-2.7-1.4-1.6c-2,1.1-2,0.9-2,0.9s-1.3,1.6-0.9,1.9c0.5,0.3,0.5,0.3,0.5,0.3l-0.6,0.3c0,0-0.7-0.7-1.4,0.4
			c-0.7,1.1-0.7,1.1-0.7,1.1l1.3,1.1l2.2-1.2c0,0,6-2.4,2.7,0.4c-2.4,2-2.5,2.3-2.4,2.3l-3.3,0.9c0,0-0.8-0.3-1.9,0.3
			c-1.1,0.7-1.1,0.5-1.1,0.5s-2,0.6,0.4,1.4s2.4,0.8,2.4,0.8s-2.5-0.3-1.6,0.5s0.9,0.8,0.9,0.8l2.6-0.7l0.1,0.8c0,0,0.9,3.4,0.6,3.6
			c-0.3,0.1-1.8,1.1-1.8,1.1s-2.2-1-2.4,1c-0.2,2-0.2,1.8-0.2,1.8l-0.3,1.9l-1.7,0.5l0.4,2.9c0,0,0.9,0.8-0.4,2.1
			c-1.3,1.3-1.2,1.1-1.2,1.1s-0.2-0.8-0.5,0.4c-0.3,1.2,2,0.3,0.6,1.9c-0.5,0.6-0.7,0.7-0.7,0.7c0,0.1-0.1,0.3-0.2,0.6
			c-0.6,1.6-0.6,1.3-0.6,1.3l0.3,1.6l2.3,0l0.5-1.5c0,0-0.2-2.9,1.3-1c1.5,1.9-0.6,2.2,1.5,1.6c2-0.6,2-0.6,2-0.6l-0.4-2.3
			c0,0-0.8-1.8,1.8-2.9c2.6-1.1,2.4-1.2,2.4-1.2l1.8,0.8c0,0-2.2,3.2,0.5,1.6c2.7-1.6,2.7-1.6,2.7-1.6l2.1,1.5c0,0,1,0.3-1.4,1.9
			c-2.4,1.6-2.2,1.3-2.2,1.3l-1.1,1l-1.5,0.5c0,0,1.2,2.6,3.2,1.1c2-1.6,1.5-0.9,2-1.6c0.6-0.7,0.6-0.7,0.6-0.7l0.6-1.7l1.2-0.7
			l0.4-1.6c0,0-0.1-0.3-0.4-1.8c-0.1-0.4-0.2-0.7-0.3-1c0.2,0,0.5-0.1,0.7-0.4c1-1.2,1-1.2,1-1.2l1.2-0.3l2.2,0.6l0,0.2h0
			c0,0-0.2,0.8-0.2,1.6c0.1,0.8,0.5,1.7,1,1.3c0.5-0.3,0.5-0.3,0.5-0.3s0.4,0.3,1.3-1c0.5-0.8,1-1,1.2-1.1c0,0.1,0.1,0.1,0.1,0.2
			c0,0.5,0.3,0.8,0.3,0.8l0.7-0.1v0.9c0,0,0.4,4.5,0.3,5s2.1,2.5,2.1,3c0,0.6,0.2,1.2,0.2,1.8c0,0.5-0.2,2.3-0.4,3.2
			c-18.7,3.4-39,13.4-39,13.4v69l507.5-0.3C706,353.9,634.6,305.8,618.5,302.6z M292.3,255L292.3,255c0,0,0.4,0,0.8-0.1
			c0,0.3,0.1,0.6,0.1,0.9c-0.3-0.1-1.3-0.5-1.9,0.1l0-0.6L292.3,255z M290.2,257.5l0.6-0.1c0,0.1,0.1,0.1,0.1,0.2
			c0,0.3-0.1,0.5-0.1,0.6c-0.2-0.3-0.5-0.5-0.8-0.8c0,0,0,0,0-0.1L290.2,257.5z M289.9,260.6l-0.3,0.1c0-0.1,0.1-0.2,0.1-0.3
			C289.8,260.5,289.8,260.6,289.9,260.6z M237.1,258.7c0,0.1,0,0.1,0,0.1s0,0-0.1,0C237.1,258.8,237.1,258.8,237.1,258.7z
			 M241.6,257.6l0.8,0l1.2,1c0,0,0.1,0.2,0.3,0.3l-2.2,2.7l-0.9-4L241.6,257.6z M258.4,261.6c0.1,0.2,0.1,1.6,0.1,1.9
			c0,0.4-0.4,0.6-0.4,0.6s-0.3-0.2-0.3-0.8c0-0.4-0.2-0.9-0.4-1.2c0.2-0.3,0.4-0.5,0.8-0.8C258.4,261.4,258.4,261.5,258.4,261.6z
			 M278.4,255C278.4,255,278.4,255.1,278.4,255l1.1-0.6l0.4,1v0.5l-1.1,0.2l-0.2-0.5c0,0-0.1-0.2-0.3-0.5
			C278.3,255.2,278.3,255.1,278.4,255z M246.9,229.9c0.3,0.4,0.6,1,0.7,1.2l-1.4-0.6c0,0,1.4,0.2,0.4-0.9
			C246.7,229.6,246.8,229.7,246.9,229.9z M245.4,227.8c0,0.3,0.1,0.6,0.1,0.9C245.3,228.2,245.3,227.9,245.4,227.8z M239,264.5
			c0,0-1.8-2.1-2.1-2.2c-0.1-0.1,0-1.4,0.1-2.8c0.1,0,0.1,0.1,0.2,0.1c1.2,0.6-0.2,0.5,1.1,0.5c1.3,0,1.3,0,1.3,0l0.1-0.2
			c0.1,1.2,0.3,2.4,0.3,2.5C240.1,262.8,239,264.5,239,264.5z M245.2,270.7c-1.2,0.1-2.3,0.2-3.5,0.4c0-0.8,0-1.8,0-1.8
			c0-0.1-0.1-2.8-0.1-3.1s2.2-3.8,2.4-4.2c0.1-0.4,1.6-3.6,1.6-4.3c0-0.2,0-0.6-0.1-1l0.1-0.1c0.3,0,1.5,1.1,1.6,1.2
			c0.1,0.1,0.7-0.2,0.7-0.2s0.4,1.1,0.6,1.3c0.2,0.1,0.8,0.3,0.8,0.3s-0.1,0.6,0.2,0.8c0.4,0.2,1.2,0.4,1.2,0.4l0.3-0.4
			c0.1,0.4,0.2,0.8,0.2,1.2c-0.2,0.2-0.1,0.1-0.1,0.1s-0.2-0.8-0.5,0.4c-0.2,0.8,0.7,0.7,1,1c0,0.1,0,0.2,0.1,0.2
			c0,0.2-0.1,0.4-0.4,0.7c-0.5,0.6-0.7,0.7-0.7,0.7c0,0.1-0.1,0.3-0.2,0.6c-0.6,1.6-0.6,1.3-0.6,1.3l0.3,1.6l2.3,0l0.5-1.5
			c0,0,0-0.2,0-0.6c0.5,0.9,0.9,1.7,1,2.1c0.1,0.7,0,1.9,0,2.3c0,0.1,0,0.4,0.1,0.7C250.4,270.6,247.4,270.6,245.2,270.7z
			 M281.9,273.6c-7.7-0.9-14.8-1.7-21-2.2c-0.2-0.6-0.5-1.3-0.5-1.4c0-0.1,0-2.3,0.2-2.9c0.2-0.5,2.1-3.4,2.3-3.7
			c0.1-0.1,0.3-0.6,0.6-1.2c0,0,0.1,0,0.1-0.1c2.7-1.6,2.7-1.6,2.7-1.6l2.1,1.5c0,0,1,0.3-1.4,1.9c-2.4,1.6-2.2,1.3-2.2,1.3l-1.1,1
			l-1.5,0.5c0,0,1.2,2.6,3.2,1.1c2-1.6,1.5-0.9,2-1.6c0.6-0.7,0.6-0.7,0.6-0.7l0.6-1.7l1.2-0.7l0.4-1.6c0,0-0.1-0.3-0.4-1.8
			c-0.4-2.3-1.8-1.1-0.4-2.3c1.4-1.1,1.4-1.1,1.4-1.1s1.5-0.5,2.6-1c-0.1,0.1-0.1,0.2-0.1,0.2l-0.2,0.5l0.7,0.7l0.6-0.6l1.7-0.2
			l0.5,0.4c0,0-0.1,0.1-0.1,0.1c-0.3,0.6-0.7,1-0.7,1h-1.3c0,0-0.2,0.8-0.2,1.6c0.1,0.8,0.5,1.7,1,1.3c0.5-0.3,0.5-0.3,0.5-0.3
			s0.4,0.3,1.3-1c0.8-1.3,1.5-1,1.5-1l0.8,0.4v1.4c0,0,0.4,4.5,0.3,5c0,0.6,2.1,2.5,2.1,3c0,0.6,0.2,1.2,0.2,1.8
			C282.5,270.5,282.2,273.3,281.9,273.6z M283.6,265.7c0,0-1.8-2.1-2.1-2.2c-0.1-0.1,0-2.1,0.2-3.8l1.5-0.8c0,0-2.9-2.2,0-2.3
			c0.1,0,0.2,0,0.3,0l0.4,0.5l0.1,0c0,0.8-0.1,1.7,0,1.8c0.1,0.3,0.5,4.6,0.6,4.8C284.7,264,283.6,265.7,283.6,265.7z M285.4,257.7
			l0.7,0v-0.8v-0.2l0.2,1.4l1.6,0.3l0,0c0.2,0.2,0.3,0.4,0.5,0.6l0,1.3l-2.2,2.7l-1-4.3L285.4,257.7z M286.2,267.4
			c0-0.3,2.2-3.8,2.4-4.2c0-0.1,0.2-0.4,0.3-0.7l0.2,1.4c0,0,0.9,0.8-0.4,2.1c-1.3,1.3-1.2,1.1-1.2,1.1s-0.2-0.8-0.5,0.4
			c-0.3,1.2,2,0.3,0.6,1.9c-0.5,0.6-0.7,0.7-0.7,0.7c0,0.1-0.1,0.3-0.2,0.6c-0.1,0.4-0.3,0.7-0.3,0.9c0-0.5,0-1,0-1
			C286.3,270.4,286.2,267.7,286.2,267.4z M295.9,274.9c0,0-0.1,0.2-0.1,0.4c-2.9-0.4-5.8-0.8-8.6-1.1c-0.2-0.3-0.4-0.6-0.6-0.7
			l2.1,0l0.5-1.5c0,0-0.2-2.9,1.3-1c1.5,1.9-0.6,2.2,1.5,1.6c2-0.6,2-0.6,2-0.6l-0.4-2.3c0,0-0.4-0.8,0.2-1.6
			c0.8,1.3,1.8,2.8,1.9,3.2C296,271.8,295.9,274.8,295.9,274.9z M295.7,266.6c0.1,0,0.2-0.1,0.2-0.1c0.1,0.3,0.1,0.5,0.1,0.5
			S295.9,266.8,295.7,266.6z M299.4,266.5c-0.1,0.2-0.2,0.4-0.4,0.6c-0.1-0.1-0.5-0.4-0.5-0.8c0-0.1,0-0.3,0-0.5l0.9,0.4
			C299.5,266.3,299.4,266.4,299.4,266.5z M303,270c-1.9,1.2-1.7,1-1.7,1l-0.6,0.6c0.1-1.1,0.1-2.7,0.2-2.8c0-0.2,0.3-0.9,0.5-1.5
			c1.5-0.9,1.5-0.9,1.5-0.9l1.6,1.1C304,268.1,303.5,269.1,303,270z M383,267.1L383,267.1c0.1,0,0,0.2-0.2,0.4
			C382.9,267.4,382.9,267.2,383,267.1z M377.2,268.8c0.1,0.1,0.1,0.1,0.2,0.1c0,0,0,0.1,0,0.1c0,0.2-0.2,0.7-0.4,1.2
			C376.9,270.1,376.8,269.5,377.2,268.8z M371.1,266.7c0.8,0.3,0.7-1.4,0.7-1.4l-0.4-0.7v0l0.4-1l0.5-0.2l0.1,0.9c0,0.6,0,1.4,0,2.1
			c-0.1,0.1-0.2,0.3-0.4,0.5c-1.3,1.3-1.2,1.1-1.2,1.1s0,0,0-0.1C371,267.5,371.1,267.1,371.1,266.7z M369.9,265.7
			C369.9,265.7,369.9,265.7,369.9,265.7L369.9,265.7C369.8,265.7,369.8,265.7,369.9,265.7z M362.3,264.3l-0.1,0.5
			c0-0.1-0.1-0.3-0.1-0.4c0,0,0-0.1,0-0.1L362.3,264.3z M360.4,264.4c0.1,0.1,0.3,0.3,0.6,0.6c0.5,0.4,0.4,1,0.3,1.3
			c-0.4-0.4-0.9-0.9-1.3-1.4L360.4,264.4z M349.4,263.6l-0.3,0.4l-0.1-0.2c0,0-0.1-0.1-0.2-0.3L349.4,263.6z M348,265.6L348,265.6
			c-0.6,0.5-1.5,1.4-2.2,2.2c-0.1-0.3-0.1-0.7,0.2-1c0.7-0.6,0.7-0.6,0.7-0.6L348,265.6z M318.5,278.5c-4.5-0.7-9.2-1.3-13.8-2
			c0.1-0.5,0.2-1.1,0.2-1.4c0-0.6-0.2-2.2,0-3.1c0.2-0.8,1.4-2.9,2.1-4.3c0.1-0.1,0.3-0.2,0.4-0.3c1-1.2,1-1.2,1-1.2l1.2-0.3
			l2.2,0.6l0.1,0.8l1.3,0.5c0,0,0.7-0.6,0.9-0.9c0.3-0.3,0.3-0.3,0.3-0.3s1.4,0.3,1.4,0.8c0,0.5,0.3,0.8,0.3,0.8l0.4,0
			c0.1,1.2,0.2,2.3,0.2,2.6c0,0.6,2.1,2.5,2.1,3c0,0.6,0.2,1.2,0.2,1.8C318.8,276,318.6,277.5,318.5,278.5z M319.9,271.5
			c0,0-1.8-2.1-2.1-2.2c-0.1,0-0.1-0.7,0-1.6c0.3,0.4,0.8,1.4,0.8,1.4s-1.2,0.1,0,0.8c1.2,0.6-0.2,0.5,1.1,0.5c0.4,0,0.6,0,0.8,0
			C320.3,271,319.9,271.5,319.9,271.5z M323,267.8l0.2,0l-0.6,0.8l-0.2-0.7L323,267.8z M322.8,279.1c-0.3-0.5-0.2-2.8-0.2-2.9
			c0-0.1-0.1-2.8-0.1-3.1c0-0.3,2.2-3.8,2.4-4.2c0,0,0-0.1,0-0.1l0.1,0.1c0,0,1,1.2,1.2,0.1c0.2-1.1,0.2-1.1,0.2-1.1l-0.5-0.6
			l1.2-0.5c0.3,0,1.5,1.1,1.6,1.2c0.1,0.1,0.7-0.2,0.7-0.2s0.4,1.1,0.6,1.3c0.2,0.1,0.8,0.3,0.8,0.3s-0.1,0.6,0.2,0.8
			c0.4,0.2,1.2,0.4,1.2,0.4l0.3-0.4c0.3,1.4,0.7,3.3,0.9,4c0.4,1,1.7,3.1,1.9,3.9c0.1,0.7,0,1.9,0,2.3c0,0.1,0,0.3,0.1,0.6
			C331.4,280.4,327.2,279.8,322.8,279.1z M338.1,279.2c-0.1,0-0.5-0.8-0.5-1c0-0.1-1.5-2.7-2-3.7c-0.5-1-1.8-4.1-1.9-4.7
			c0,0,0,0,0-0.1c0.2-0.1,0.5-0.3,0.5-0.7c0-1,0-1.1,0-1.1v-1.1l-0.1-0.3l0.8-0.5c0,0.1,0,0.2,0.1,0.4c0.3,1,0.3,1,0.3,1l-0.6,0.6
			l0.1,1.6l0.8,0.3l0.4-0.5l0.2-0.9l0,0c0,0.6,0,1,0,1.1c0,0.2,1.1,2,1.2,2.4c0,0.3,0.4,1.5,0.4,1.9c0,0.4,0.5,1.6,0.5,1.8
			c0,0.2,0.2,2.8,0.2,2.9C338.5,278.5,338.1,279.2,338.1,279.2z M340,273.8c0,0.4-0.4,0.6-0.4,0.6s-0.3-0.2-0.3-0.8
			c0-0.6-0.4-1.2-0.5-1.4c-0.1-0.2-1.4-2.7-1.4-3c0-0.3,0.1-3.5,0-3.7c0,0,0,0,0-0.1l0.5,0.2l0.3,0.7v0l-0.3,0.5
			c0,0-0.1,1.3,0.5,1.1c0.1,0.9,0.3,1.7,0.3,1.8c0.1,0.2,1,1.8,1.1,2C340,272.1,340,273.4,340,273.8z M340,269.3
			c-0.2-0.2-0.5-1.4-0.6-2c0.2-0.1,0.2-0.1,0.2-0.1l0-1.2l0.9-0.5v-0.3l2.1,0.2l-0.1-0.6l0.1,0l-0.2-1.4c0,0-0.3-0.2-0.5-0.4
			l0.5-0.2c0.1,0,0.2,0.1,0.3,0.1c0.1,0.2,0.2,0.4,0.3,0.6c0,0.5-0.1,1-0.1,1.1c0,0.4-0.3,3.1-0.3,3.4c0,0.3-1.8,2.2-1.8,2.2
			S340.3,269.5,340,269.3z M342.4,272.1c0-0.2,1-1.8,1.1-2.1c0.1-0.3,0.2-2.2,0.2-2.5c0-0.2,0.2-1.6,0.3-2.4
			c0.3,0.1,0.6,0.1,0.6,0.1l0.8-1l1,0.6c0,0,0,0,0.1,0c0,0-0.1,0.1-0.1,0.1c-0.5,0.4-0.5,0.7-0.5,0.7s-0.3-0.2-0.6,0.6
			c-0.2,0.8-0.4,1.8-0.4,1.8l0.4,0.2c-0.2,0.3-0.4,0.4-0.4,0.5c0,0.4-1,2.5-1.1,3.2c-0.2,0.7-1.9,2.3-1.9,2.3
			S342.4,272.4,342.4,272.1z M366.4,283c0,0.1-0.4,1.1-0.7,1.9c-0.3,0-0.6,0-0.8,0c-2,0-10.6-1.2-22.4-2.9c-0.2-0.6-0.6-1.7-0.6-1.8
			c0-0.1,0-2.3,0.2-2.9c0.2-0.5,2.1-3.4,2.3-3.7c0.2-0.3,1.6-3.3,1.8-3.9c0.3-0.5,3-3.5,3.2-3.7c0.1-0.2,0.9-1.4,1.5-2.3l1,0.4
			l0.4,0.4l1.5,0.3l0.9-0.9l-0.5-1.2l0.8-0.5c0.1,0.1,0.2,0.2,0.2,0.3v1.1c0,0,0.2,0.6,0,1.2c-0.2,0.6-0.4,0.9-0.4,0.9l-0.2,0.5
			l0.7,0.7l1.1-1l1.6,0.1c0,0-0.1-0.1-0.2-0.3c1.1,1.3,2.5,2.8,2.7,3.2c0.3,0.7,2.2,4.8,2.5,5.2c0.2,0.3,2.8,4.2,3.1,4.9
			C366.5,279.9,366.4,282.9,366.4,283z M364,272c-0.2-0.9-1.5-3.8-1.5-4.2c0-0.1-0.2-0.3-0.5-0.7l0.6-0.3c0,0,0-0.1,0-0.2l0.8-0.2
			c0,0-0.6-1.6-0.2-1.5c0.3,0.1,0.7,0.1,0.7,0.1l0.2,0.3c0.1,0.4,0.1,0.8,0.1,0.9c-0.1,0.4,0.1,2.9,0.2,3.3c0.2,0.4,1.4,2.5,1.5,2.8
			c0.1,0.3,0.7,2.8,0.7,2.8S364.3,272.9,364,272z M367.9,269.6c0,0-0.8-0.8-1.5-1.6l0,0l1-0.1v-0.8v-1c0,0,0.5,0.8,1.1,1
			c0.4,0.1,0.7,0.2,0.9,0.1c-0.2,0.5-0.3,1-0.5,1.1C368.7,268.7,367.9,269.6,367.9,269.6z M370.3,270.9c0,0.1-0.1,0.3-0.2,0.6
			c-0.6,1.6-0.6,1.3-0.6,1.3l0.3,1.6l0.2,0c-0.1,0.6-0.3,0.8-0.3,0.8s-0.6-0.3-0.6-0.8c0-0.5,0-2.3,0.2-2.6c0.2-0.3,1.4-2.4,1.5-2.7
			c0,0,0-0.1,0-0.1c0.5,0.2,1.2,0.2,0.3,1.2C370.6,270.8,370.4,270.9,370.3,270.9z M372.3,280.3c0,0.2-0.5,1.3-0.6,1.3
			c-0.1,0-0.6-0.8-0.6-0.9c0-0.1,0.2-3.6,0.2-3.9c0-0.3,0.6-1.9,0.7-2.4c0,0,0,0,0-0.1l0.1,0l0.5-1.5c0,0-0.2-2.9,1.3-1
			c1.5,1.9-0.6,2.2,1.5,1.6c0.1,0,0.3-0.1,0.4-0.1c-0.4,0.8-0.7,1.6-0.9,2.1C374.3,276.7,372.3,280.1,372.3,280.3z M401.7,280.2
			c-0.1,0.1-0.5,0.4-0.9,0.7c-8.9,1.1-18.5,2.3-25.7,3.1c0.1-0.3,0.1-0.6,0.1-0.8c0-0.6-0.2-2.2,0-3.1c0.2-0.9,1.9-3.8,2.5-5.1
			c0.4-0.9,0.9-3.4,1.3-5.3l0.4,0.5c0,0,1.1-0.3,1.6-0.6c0.5-0.3,0.3-1.1,0.3-1.1s0.7-0.2,1.1-0.4c0,0,0,0,0.1-0.1
			c-0.4,0.8-0.6,1.6,1,0.7c2.7-1.6,2.7-1.6,2.7-1.6l1.3,0.9c0.1,0.7,0.5,0.7,0.8,0.5l0,0c0,0,1,0.3-1.4,1.9
			c-2.4,1.6-2.2,1.3-2.2,1.3l-1.1,1l-1.5,0.5c0,0,1.2,2.6,3.2,1.1c2-1.6,1.5-0.9,2-1.6c0.6-0.7,0.6-0.7,0.6-0.7l0.6-1.7l1.2-0.7
			l0.4-1.6c0,0-0.1-0.2-0.2-1l0.7-0.6l1-0.1l2.1,0.3l-0.3,0.8l0.8,2.4c0,0,0,0,1.8-0.1c1.8-0.1-0.2,0.1,1.5-0.7c1.6-0.8,0-1,0-1
			s0.9-2.1,1.2-2.1c0.3,0,0.3,0.5,0.3,0.5l0.5,0.1c0.1,0.7,0.3,4.4,0.3,4.9c0,0.4,1,1.4,1.6,2.2c-0.2,0.4-0.2,0.3-0.2,0.3l0.3,1.6
			l0.6,0c0,0.3,0.1,0.6,0.1,0.9C402.3,277.1,401.9,279.9,401.7,280.2z M403.9,268c-1.3,1.3-1.2,1.1-1.2,1.1s-0.2-0.8-0.5,0.4
			c-0.3,1.2,2,0.3,0.6,1.9c-0.1,0.1-0.1,0.1-0.2,0.2c-0.5-0.6-1.2-1.3-1.3-1.4c-0.1-0.1,0-2.1,0.2-3.8l1.5-0.8c0,0-0.3-0.2-0.6-0.5
			c0.5-0.2,1-0.3,1-0.3s0,0,0.3,0.4c0,0.3,0,0.4,0,0.5c0.1,0.1,0.2,1.2,0.3,2.3C404,267.9,404,268,403.9,268z M433.8,280
			c-4.4-0.9-7.6-1.5-9.1-1.5c-3.2,0-10.2,0.7-18.3,1.7c-0.1-0.1-0.1-0.1-0.2-0.2c-0.3-0.3-0.2-2.9-0.2-2.9c0-0.1-0.1-2.8-0.1-3.1
			c0-0.1,0.1-0.2,0.2-0.4c0.7,1.3-0.7,1.5,1,0.9c2-0.6,2-0.6,2-0.6l-0.4-2.3c0,0-0.8-1.8,1.8-2.9s2.4-1.2,2.4-1.2l1.8,0.8
			c0,0-2.2,3.2,0.5,1.6c2.7-1.6,2.7-1.6,2.7-1.6l2.1,1.5c0,0,1,0.3-1.4,1.9c-2.4,1.6-2.2,1.3-2.2,1.3l-1.1,1l-1.5,0.5
			c0,0,1.2,2.6,3.2,1.1c2-1.6,1.5-0.9,2-1.6c0.6-0.7,0.6-0.7,0.6-0.7l0.6-1.7l1.2-0.7l0.4-1.6c0,0-0.1-0.3-0.4-1.8
			c0-0.2-0.1-0.4-0.1-0.5c0.1-0.1,0.9-0.8,1.2-1.2c0.3-0.4,0.3-0.4,0.3-0.4s0.2,0,0.5,0.1l0.1,0.1l0.2,0c0.5,0.2,1.1,0.5,1.1,0.9
			c0,0.7,0.4,1,0.4,1l1-0.1c0.2,0.6,0.5,1.2,0.9,0.9c0.5-0.3,0.5-0.3,0.5-0.3s0.2,0.2,0.6-0.2c0.3,0.6,0.6,1.2,0.6,1.2s-1.6,0.2,0,1
			c1.6,0.8-0.3,0.7,1.5,0.7c0.5,0,0.9,0,1.2,0c0.1,0.9,0.1,1.8,0.1,2c0,0.6,2.1,2.5,2.1,3c0,0.6,0.2,1.2,0.2,1.8
			C434,278,433.9,279.1,433.8,280z M435.2,273.5c0,0-1.8-2.1-2.1-2.2c-0.1-0.1,0-2.1,0.2-3.8l0.3-0.2l1.1-0.2l0.9,0.1
			c0.2,1.2,0.4,4.1,0.5,4.3C436.3,271.8,435.2,273.5,435.2,273.5z M437.4,268.7c0,0,1.3,1.6,1.6,0.1c0.3-1.5,0.3-1.5,0.3-1.5
			l-0.7-0.8l0.8-0.3l0.2,0l0.5-0.3l0.1,0L440,268l-2.2,2.7L437.4,268.7L437.4,268.7z M451.2,284C451.2,284,451.2,284,451.2,284
			c-4.9-1.2-9.3-2.2-13.2-3c-0.2-0.8-0.1-2.6-0.1-2.6c0-0.1-0.1-2.8-0.1-3.1s2.2-3.8,2.4-4.2c0.1-0.4,1.4-3.1,1.6-4.1
			c0.3,0.3,0.6,0.5,0.6,0.5c0.1,0.1,1-0.2,1-0.2s0.5,1.5,0.8,1.7s1.1,0.4,1.1,0.4s-0.2,0.8,0.3,1.1c0.5,0.3,1.6,0.6,1.6,0.6l0.4-0.5
			c0.4,1.9,0.9,4.4,1.3,5.3c0.6,1.3,2.3,4.2,2.5,5.1C451.4,281.8,451.1,283.4,451.2,284z M454.9,282.3c-0.1,0-0.6-1.1-0.6-1.3
			c0-0.2-2-3.6-2.6-4.9c-0.6-1.4-2.4-5.5-2.5-6.3c0,0,0-0.1,0-0.1c0.3-0.2,0.6-0.5,0.6-0.9c0-1.3,0-1.5,0-1.5v-1.5l-0.4-1l0.1-0.6
			l0.4-0.2c0,0,0.4-0.3,1-0.3c-0.1,0.3-0.3,0.8,0,1.6c0.4,1.3,0.4,1.3,0.4,1.3l-0.7,0.8l0.1,2.1l1.1,0.4l0.5-0.7l0.3-1.2
			c0,0.8,0,1.3,0,1.4c0.1,0.3,1.5,2.7,1.6,3.1c0,0,0,0,0,0c-1.4,1.1,0.1,0.9,0.1,0.9l0.1,0.1c0.1,0.6,0.3,1.2,0.3,1.5
			c0,0.3,0.2,0.8,0.4,1.3c-0.1,0.6,0,0.8,0.3,0.9c0,0.1,0,0.1,0,0.2c0,0.3,0.2,3.7,0.2,3.9C455.5,281.5,455,282.3,454.9,282.3z
			 M455.3,271.9c-0.5-1.1-1.3-2.6-1.3-2.8c0-0.2,0-2,0-3.3l0.6,0.5c0,0.5,0.1,1.4,0.7,1.2c0,0.2,0.1,0.4,0.1,0.5
			c-2.2,1.3,0.1,1.1,0.1,1.1S455.6,269,455.3,271.9z M456.8,267.1c0-0.1,0-0.2-0.1-0.3l0.5,0C457.1,266.9,457,267,456.8,267.1z
			 M457.9,266.5c0,0,0,0-0.2,0.1l-0.2-1.1c0,0-0.5-0.4-0.7-0.6l0-0.1c0.1,0,0.4,0,1.1,0.3c2.2,0.9,2.2,0.9,2.2,0.9l0.3,0.2
			C460,266.6,457.9,266.5,457.9,266.5z M460.1,275.1c0,0,0.1,0,0.1,0c0.3-0.1,0.5-0.2,0.7-0.3c-0.5,0.5-1,1-1,1
			S460,275.5,460.1,275.1z M480.2,291.1c-6.5-1.6-13-3.2-19.2-4.7c-0.2-0.6-0.9-2.5-0.9-2.6c0-0.1,0-3.1,0.2-3.8
			c0.1-0.4,1.1-1.9,1.9-3.1l0.6,0l1.5-1.2c0,0-0.2,0.4,1.3-1.1c1.5-1.5,2.9-0.5,2.9-0.5l2.5,1l1.3,0.7l1.1-1v-2.2l2,0.5l-0.1,2
			l1.2,0.2l0.2-0.1c-0.1,0.6-0.2,1.2-0.2,1.5c0,0.8,1.5,3.9,1.6,4.3c0.1,0.4,2.4,3.9,2.4,4.2c0,0.3-0.1,3-0.1,3.1
			C480.3,288.4,480.4,290.4,480.2,291.1z M480.4,280.7l-2.2-2.7l-0.1-2.1l0.6,0.3l1.6-0.3l0.3-1.9c0,0,0,0.1,0.4,0.2l0.4,2.2
			L480.4,280.7z M482,281.6c0.1-0.3,0.5-4.6,0.6-4.8c0.1-0.2,0-1.3,0-2.3c0.2,0,0.5,0,0.8,0c2.9,0.1,0,2.3,0,2.3l1.5,0.8
			c0.2,1.7,0.4,3.7,0.2,3.8c-0.2,0.1-2.1,2.2-2.1,2.2S481.9,281.8,482,281.6z"/>
		
			<linearGradient id="SVGID_00000145761787436516909010000007555143298553832636_" gradientUnits="userSpaceOnUse" x1="581.8008" y1="364.4771" x2="581.8008" y2="90.4192">
			<stop  offset="0" style="stop-color:#DD5470"/>
			<stop  offset="1" style="stop-color:#971460"/>
		</linearGradient>
		
			<polygon style="clip-path:url(#SVGID_00000098204337954717920990000016703055738501799058_);fill:url(#SVGID_00000145761787436516909010000007555143298553832636_);" points="
			663.6,258.9 663.6,250 641.8,250 641.8,207.3 673.2,207.3 641.8,197.7 631.4,197.7 631.4,146.1 662.8,146.1 631.4,136.6 
			619.4,136.6 619.4,84.9 650.8,84.9 619.4,75.4 582.9,53.8 582.9,21.5 580.7,21.5 580.7,53.8 544.2,75.4 512.8,84.9 544.2,84.9 
			544.2,136.6 532.2,136.6 500.8,146.1 532.2,146.1 532.2,197.7 521.9,197.7 490.4,207.3 521.9,207.3 521.9,250 500,250 500,258.9 
			499.9,258.9 497,261.4 502.2,261.4 502.2,320.1 504.5,320.1 504.5,261.4 513.2,261.4 513.2,320.1 650.4,320.1 650.4,261.4 
			659.1,261.4 659.1,320.1 661.4,320.1 661.4,261.4 666.6,261.4 663.7,258.9 		"/>
		<g style="clip-path:url(#SVGID_00000098204337954717920990000016703055738501799058_);">
			<g>
				<g>
					
						<linearGradient id="SVGID_00000014624396915096330690000016958912875363548296_" gradientUnits="userSpaceOnUse" x1="536.8409" y1="314.8111" x2="536.8409" y2="89.9555">
						<stop  offset="0" style="stop-color:#971460"/>
						<stop  offset="1" style="stop-color:#571152"/>
					</linearGradient>
					<path style="fill:url(#SVGID_00000014624396915096330690000016958912875363548296_);" d="M522.4,267v53.1h1.7v-48.4h25.6v48.4
						h1.7V267H522.4z M549.7,270.5H524v-1.7h25.6V270.5z"/>
					
						<linearGradient id="SVGID_00000136370639558457248360000013074895131214251964_" gradientUnits="userSpaceOnUse" x1="626.7607" y1="314.8111" x2="626.7607" y2="89.9555">
						<stop  offset="0" style="stop-color:#971460"/>
						<stop  offset="1" style="stop-color:#571152"/>
					</linearGradient>
					<path style="fill:url(#SVGID_00000136370639558457248360000013074895131214251964_);" d="M612.3,267v53.1h1.7v-48.4h25.6v48.4
						h1.7V267H612.3z M639.6,270.5h-25.6v-1.7h25.6V270.5z"/>
				</g>
				
					<linearGradient id="SVGID_00000137811816762989288280000006670018213077619133_" gradientUnits="userSpaceOnUse" x1="581.8008" y1="314.8112" x2="581.8008" y2="89.9556">
					<stop  offset="0" style="stop-color:#971460"/>
					<stop  offset="1" style="stop-color:#571152"/>
				</linearGradient>
				
					<rect x="555.4" y="267" style="fill:url(#SVGID_00000137811816762989288280000006670018213077619133_);" width="52.7" height="53.1"/>
				<g>
					
						<linearGradient id="SVGID_00000050636187793616896110000012386578229356161197_" gradientUnits="userSpaceOnUse" x1="553.3807" y1="314.8112" x2="553.3807" y2="89.9559">
						<stop  offset="0" style="stop-color:#971460"/>
						<stop  offset="1" style="stop-color:#571152"/>
					</linearGradient>
					<polygon style="fill:url(#SVGID_00000050636187793616896110000012386578229356161197_);" points="575.4,213.4 575.4,250 
						573.4,250 573.4,215.4 533.3,215.4 533.3,250 531.4,250 531.4,213.4 					"/>
					
						<linearGradient id="SVGID_00000120536961057389722030000014838220482720700077_" gradientUnits="userSpaceOnUse" x1="610.2209" y1="314.8112" x2="610.2209" y2="89.9559">
						<stop  offset="0" style="stop-color:#971460"/>
						<stop  offset="1" style="stop-color:#571152"/>
					</linearGradient>
					<polygon style="fill:url(#SVGID_00000120536961057389722030000014838220482720700077_);" points="632.2,213.4 632.2,250 
						630.3,250 630.3,215.4 590.2,215.4 590.2,250 588.2,250 588.2,213.4 					"/>
				</g>
				
					<linearGradient id="SVGID_00000178885983525774439280000013230944900620608182_" gradientUnits="userSpaceOnUse" x1="581.7967" y1="314.8112" x2="581.7967" y2="89.9563">
					<stop  offset="0" style="stop-color:#971460"/>
					<stop  offset="1" style="stop-color:#571152"/>
				</linearGradient>
				<polygon style="fill:url(#SVGID_00000178885983525774439280000013230944900620608182_);" points="620.9,152.2 620.9,197.7 
					618.7,197.7 618.7,154.3 544.9,154.3 544.9,197.7 542.7,197.7 542.7,152.2 				"/>
				
					<linearGradient id="SVGID_00000023259364499783618840000015923179275890993303_" gradientUnits="userSpaceOnUse" x1="581.7967" y1="314.8116" x2="581.7967" y2="89.9562">
					<stop  offset="0" style="stop-color:#971460"/>
					<stop  offset="1" style="stop-color:#571152"/>
				</linearGradient>
				<polygon style="fill:url(#SVGID_00000023259364499783618840000015923179275890993303_);" points="608.2,90.7 608.2,136.3 
					606,136.3 606,92.6 557.6,92.6 557.6,136.3 555.4,136.3 555.4,90.7 				"/>
			</g>
		</g>
		
			<linearGradient id="SVGID_00000044857528637740515410000001980515018518684033_" gradientUnits="userSpaceOnUse" x1="376.8033" y1="364.5403" x2="376.8033" y2="90.1539">
			<stop  offset="0" style="stop-color:#DD5470"/>
			<stop  offset="1" style="stop-color:#971460"/>
		</linearGradient>
		
			<path style="clip-path:url(#SVGID_00000098204337954717920990000016703055738501799058_);fill:url(#SVGID_00000044857528637740515410000001980515018518684033_);" d="
			M123,354.7c0,0,80.5-19.5,96.6-21.2c16.1-1.7,72.7,0.4,86.3,0c13.6-0.4,88.9-17.7,98.5-17.7c9.6,0,47.7,5.7,55,5.7
			s104.2-10.5,124.5-9.7c20.3,0.7,46.8,7.4,46.8,7.4v35.5H123z"/>
	</g>
	<g>
		<g>
			<g>
				<polygon class="st17" points="262.3,273.1 262.3,271 243.4,271 243.4,273.1 244.9,273.1 244.9,289 243.4,289 243.4,291.1 
					248.5,291.1 248.5,354.7 257.1,354.7 257.1,291.1 262.3,291.1 262.3,289 260.8,289 260.8,273.1 				"/>
				<polygon class="st17" points="387.7,273.1 387.7,271 368.8,271 368.8,273.1 370.3,273.1 370.3,289 368.8,289 368.8,291.1 
					374,291.1 374,354.7 382.6,354.7 382.6,291.1 387.7,291.1 387.7,289 386.2,289 386.2,273.1 				"/>
			</g>
			<path class="st17" d="M399.2,213.4c3.6-8.5,7.1-17,10.7-25.6c-23,6.5-55.4,13.2-94.5,13.2c-39,0-71.4-6.6-94.3-13.2
				c3.6,8.5,7.1,17,10.7,25.6c8.3,2.1,17.7,4.1,28.1,5.8v16.3h-21.2v6.5H260v112.7h10.3V242h90.5v112.7h10.3V242h21.2v-6.5h-21.2
				v-16.3C381.5,217.5,390.9,215.5,399.2,213.4z M360.8,235.5h-90.5v-14.8c13.7,1.8,28.8,3,45.2,3c16.5,0,31.6-1.2,45.4-3V235.5z"/>
		</g>
	</g>
</g>
<g id="DESIGNED_BY_FREEPIK">
	<g id="XMLID_107_" class="st18">
		<g id="XMLID_136_" class="st19">
			<g id="XMLID_155_">
				<path id="XMLID_163_" class="st20" d="M325.4,399.9c-0.4,0.4-0.8,0.9-1.1,1.5l-0.5-0.2c-0.1-0.3-0.3-0.5-0.7-0.5
					c-0.3,0-0.6,0.3-0.5,0.7c0,0.3,0.3,0.6,0.7,0.5c0.1,0,0.1,0,0.2-0.1l0.5,0.2c-0.3,0.6-0.4,1.1-0.5,1.7l0.7,0.1
					c0.2-1.3,0.8-2.5,1.8-3.5L325.4,399.9z"/>
				<path id="XMLID_162_" class="st20" d="M330.9,397.6c-0.2,0-0.3,0-0.5,0l-0.1-0.6c0.2-0.1,0.3-0.4,0.3-0.6c0-0.4-0.4-0.7-0.8-0.6
					c-0.4,0-0.7,0.4-0.6,0.8c0,0.3,0.2,0.5,0.4,0.6l0.1,0.6c-0.7,0.1-1.4,0.3-2.1,0.6l0.3,0.7c0.9-0.4,1.9-0.7,3-0.7
					c0.5,0,1,0.1,1.5,0.2l0.2-0.7C332,397.7,331.4,397.6,330.9,397.6z"/>
				<path id="XMLID_161_" class="st20" d="M337.5,400.1c0.3,0,0.6-0.3,0.5-0.7c0-0.3-0.3-0.6-0.7-0.5c-0.3,0-0.5,0.3-0.5,0.6
					l-0.4,0.4c-0.4-0.4-0.9-0.8-1.4-1.1l-0.4,0.6c1.1,0.7,2,1.7,2.6,2.9l0.7-0.3c-0.3-0.6-0.6-1.1-0.9-1.5l0.4-0.4
					C337.4,400.1,337.4,400.1,337.5,400.1z"/>
				<path id="XMLID_160_" class="st20" d="M330.3,407.8c-0.4,0-0.8,0-1.2,0c-0.9,0-1.7-0.1-2.5-0.2c-0.4-0.1-0.8-0.2-1.3-0.3
					c1,1.9,3.1,3.1,5.4,3.1c2.9,0,5.3-1.9,5.9-4.5c-0.7,0.4-1.5,0.8-2.5,1.1C333.1,407.5,331.8,407.7,330.3,407.8z"/>
				<path id="XMLID_156_" class="st20" d="M330.9,399.1c-3.4,0-6.1,2.7-6.1,5.9c0,0.4,0,0.8,0.1,1.3c0.7,0.5,2.7,0.9,5.3,0.7
					c2.9-0.2,5.3-1,6.7-2.2c0-0.2,0-0.4,0-0.6C336.5,401.3,334,399.1,330.9,399.1z M328.7,405.6c-1,0-1.8-0.8-1.8-1.8
					c0-1,0.8-1.8,1.8-1.8c1,0,1.8,0.8,1.8,1.8C330.6,404.8,329.8,405.6,328.7,405.6z M333.5,404.7c-0.8,0-1.4-0.6-1.4-1.4
					c0-0.8,0.6-1.4,1.4-1.4c0.8,0,1.4,0.6,1.4,1.4C334.8,404.1,334.2,404.7,333.5,404.7z"/>
			</g>
			<path id="XMLID_153_" class="st20" d="M346.9,401c-0.3-0.1-0.8-0.3-1.4-0.2c-0.6,0.1-0.8,0.3-0.8,1v0.9h2.2v1.7h-2.2v5.5h-1.9
				v-5.5h-1.3v-1.7h1.3v-0.9c0-1.7,0.9-2.8,2.6-2.8c0.6,0,1.2,0.1,1.6,0.3L346.9,401z"/>
			<path id="XMLID_151_" class="st20" d="M351.6,404.3c-0.2,0-0.4,0-0.5,0c-0.9,0-1.5,0.5-1.5,1.6v3.9h-1.9v-7.2h1.9v0.8
				c0.5-0.7,1.1-1,2-1c0.4,0,0.8,0.1,1.1,0.3L351.6,404.3z"/>
			<path id="XMLID_148_" class="st20" d="M359.3,406.2c0,0.2,0,0.5,0,0.7h-5.1c0.2,1,0.9,1.5,1.8,1.5c0.6,0,1.3-0.3,1.8-0.7l1.1,1.2
				c-0.8,0.7-1.9,1.1-3.1,1.1c-2.2,0-3.7-1.5-3.7-3.8c0-2.3,1.5-3.8,3.6-3.8C357.8,402.4,359.3,403.9,359.3,406.2z M354.2,405.5h3.2
				c-0.2-0.9-0.7-1.4-1.6-1.4C354.9,404.1,354.3,404.6,354.2,405.5z"/>
			<path id="XMLID_145_" class="st20" d="M366.9,406.2c0,0.2,0,0.5,0,0.7h-5.1c0.2,1,0.9,1.5,1.8,1.5c0.6,0,1.3-0.3,1.8-0.7l1.1,1.2
				c-0.8,0.7-1.9,1.1-3.1,1.1c-2.2,0-3.7-1.5-3.7-3.8c0-2.3,1.5-3.8,3.6-3.8C365.5,402.4,366.9,403.9,366.9,406.2z M361.8,405.5h3.2
				c-0.2-0.9-0.7-1.4-1.6-1.4C362.5,404.1,362,404.6,361.8,405.5z"/>
			<path id="XMLID_142_" class="st20" d="M375.3,406.2c0,2.2-1.5,3.8-3.5,3.8c-1,0-1.6-0.4-2.1-0.9v3.7h-1.9v-10.1h1.9v0.8
				c0.5-0.6,1.2-1,2.1-1C373.8,402.4,375.3,404,375.3,406.2z M369.6,406.2c0,1.1,0.7,2,1.8,2c1.1,0,1.9-0.9,1.9-2c0-1.1-0.7-2-1.9-2
				C370.3,404.2,369.6,405.1,369.6,406.2z"/>
			<path id="XMLID_139_" class="st20" d="M378.4,400.3c0,0.7-0.5,1.2-1.2,1.2c-0.7,0-1.2-0.5-1.2-1.2c0-0.7,0.5-1.2,1.2-1.2
				C377.8,399,378.4,399.6,378.4,400.3z M378.1,409.8h-1.9v-7.2h1.9V409.8z"/>
			<path id="XMLID_137_" class="st20" d="M381.3,405.2l2.7-2.6h2.4l-3.5,3.4l3.5,3.8H384l-2.7-2.9v2.9h-1.9v-10.7h1.9V405.2z"/>
		</g>
		<g id="XMLID_108_" class="st19">
			<path id="XMLID_133_" class="st20" d="M249.7,409.7v-1.1c-0.5,0.7-1.4,1.2-2.4,1.2c-1.8,0-3.1-1.4-3.1-3.7c0-2.3,1.3-3.7,3.1-3.7
				c1,0,1.8,0.5,2.4,1.2v-3.8h1.1v9.8H249.7z M249.7,407.8v-3.2c-0.4-0.6-1.2-1.1-2.1-1.1c-1.4,0-2.3,1.2-2.3,2.7
				c0,1.6,0.8,2.7,2.3,2.7C248.5,408.9,249.3,408.4,249.7,407.8z"/>
			<path id="XMLID_130_" class="st20" d="M252.2,406.2c0-2.1,1.5-3.7,3.5-3.7c2.1,0,3.4,1.7,3.4,3.8v0.3h-5.7c0.1,1.3,1,2.4,2.5,2.4
				c0.8,0,1.6-0.3,2.2-0.9l0.5,0.7c-0.7,0.7-1.7,1.1-2.8,1.1C253.7,409.9,252.2,408.4,252.2,406.2z M255.7,403.4
				c-1.5,0-2.3,1.3-2.3,2.4h4.6C258,404.7,257.3,403.4,255.7,403.4z"/>
			<path id="XMLID_128_" class="st20" d="M259.9,408.8l0.6-0.8c0.5,0.5,1.4,1,2.3,1c1.1,0,1.7-0.5,1.7-1.2c0-1.7-4.4-0.7-4.4-3.3
				c0-1.1,1-2,2.6-2c1.2,0,2.1,0.5,2.6,1l-0.5,0.8c-0.4-0.5-1.2-0.9-2.1-0.9c-1,0-1.6,0.5-1.6,1.1c0,1.6,4.4,0.5,4.4,3.3
				c0,1.2-1,2.1-2.8,2.1C261.6,409.9,260.6,409.5,259.9,408.8z"/>
			<path id="XMLID_125_" class="st20" d="M266.8,400.9c0-0.4,0.3-0.7,0.7-0.7c0.4,0,0.7,0.3,0.7,0.7c0,0.4-0.3,0.7-0.7,0.7
				C267.1,401.6,266.8,401.3,266.8,400.9z M267,409.7v-7.1h1.1v7.1H267z"/>
			<path id="XMLID_122_" class="st20" d="M269.9,411.5l0.6-0.8c0.6,0.7,1.3,1,2.3,1c1.2,0,2.3-0.6,2.3-2.1v-1
				c-0.5,0.7-1.4,1.3-2.4,1.3c-1.8,0-3.1-1.4-3.1-3.7c0-2.3,1.3-3.7,3.1-3.7c1,0,1.8,0.5,2.4,1.2v-1.1h1.1v6.9
				c0,2.3-1.6,3.1-3.4,3.1C271.5,412.6,270.7,412.4,269.9,411.5z M275,407.7v-3.1c-0.4-0.6-1.2-1.1-2.1-1.1c-1.4,0-2.3,1.1-2.3,2.7
				c0,1.6,0.8,2.7,2.3,2.7C273.8,408.8,274.6,408.3,275,407.7z"/>
			<path id="XMLID_120_" class="st20" d="M282.7,409.7v-4.6c0-1.2-0.6-1.6-1.6-1.6c-0.9,0-1.7,0.5-2.1,1.1v5.2h-1.1v-7.1h1.1v1
				c0.5-0.6,1.5-1.2,2.5-1.2c1.5,0,2.3,0.7,2.3,2.3v5H282.7z"/>
			<path id="XMLID_117_" class="st20" d="M285.2,406.2c0-2.1,1.5-3.7,3.5-3.7c2.1,0,3.4,1.7,3.4,3.8v0.3h-5.7c0.1,1.3,1,2.4,2.5,2.4
				c0.8,0,1.6-0.3,2.2-0.9l0.5,0.7c-0.7,0.7-1.7,1.1-2.8,1.1C286.7,409.9,285.2,408.4,285.2,406.2z M288.7,403.4
				c-1.5,0-2.3,1.3-2.3,2.4h4.6C291,404.7,290.3,403.4,288.7,403.4z"/>
			<path id="XMLID_114_" class="st20" d="M298.7,409.7v-1.1c-0.5,0.7-1.4,1.2-2.4,1.2c-1.8,0-3.1-1.4-3.1-3.7c0-2.3,1.3-3.7,3.1-3.7
				c1,0,1.8,0.5,2.4,1.2v-3.8h1.1v9.8H298.7z M298.7,407.8v-3.2c-0.4-0.6-1.2-1.1-2.1-1.1c-1.4,0-2.3,1.2-2.3,2.7
				c0,1.6,0.8,2.7,2.3,2.7C297.4,408.9,298.3,408.4,298.7,407.8z"/>
			<path id="XMLID_111_" class="st20" d="M305,409.7v-9.8h1.1v3.8c0.6-0.8,1.4-1.2,2.4-1.2c1.8,0,3.1,1.5,3.1,3.7
				c0,2.3-1.3,3.7-3.1,3.7c-1,0-1.9-0.5-2.4-1.2v1.1H305z M308.2,408.9c1.4,0,2.3-1.2,2.3-2.7c0-1.6-0.8-2.7-2.3-2.7
				c-0.9,0-1.7,0.5-2.1,1.1v3.2C306.5,408.4,307.3,408.9,308.2,408.9z"/>
			<path id="XMLID_109_" class="st20" d="M312.8,411.5c0.2,0.1,0.4,0.1,0.6,0.1c0.5,0,0.8-0.2,1.1-0.7l0.5-1.1l-3-7.1h1.2l2.4,5.8
				l2.3-5.8h1.2l-3.5,8.5c-0.4,1-1.1,1.4-2.1,1.4c-0.2,0-0.6,0-0.8-0.1L312.8,411.5z"/>
		</g>
	</g>
</g>
</svg>
